<svg width="47" height="42" viewBox="0 0 47 42" fill="none" xmlns="http://www.w3.org/2000/svg">
<path fill-rule="evenodd" clip-rule="evenodd" d="M29.3752 27.3458V31.3643H3.92066C2.83563 31.3643 1.95851 30.4839 1.95851 29.3905V3.93661C1.95851 2.84689 2.81865 1.96285 3.92066 1.96285L43.0769 1.96224C44.1619 1.96224 45.0391 2.84264 45.0391 3.93601V29.3899C45.0391 30.4796 44.1795 31.3631 43.0769 31.3631L39.1647 31.3643V27.3458C40.3771 26.1086 41.1233 24.4133 41.1233 22.5433C41.1233 18.7541 38.0543 15.6827 34.2694 15.6827C30.4839 15.6827 27.4155 18.7541 27.4155 22.5433C27.4155 24.4133 28.1617 26.1068 29.374 27.3458H29.3752ZM37.2087 28.7437V36.4616L34.2706 33.5207L31.3331 36.4616V28.7437C32.2242 29.1672 33.2189 29.4045 34.2706 29.4045C35.3223 29.4045 36.3176 29.1672 37.2087 28.7437ZM39.1672 33.3247H43.0733C45.2433 33.3247 47 31.57 47 29.4039V3.92023C47 1.74442 45.2415 0 43.0733 0L3.92672 0.000606182C1.75666 0.000606182 0 1.75473 0 3.92144V29.4045C0 31.5803 1.75848 33.3253 3.92672 33.3253L29.3752 33.3247V41.1652L34.2718 36.2644L39.1678 41.1652V33.3247H39.1672ZM41.1251 9.80149V11.7619H5.87493V9.80149H41.1251ZM23.5003 15.6821V17.6426H5.87493V15.6821H23.5003ZM17.6248 21.5628V23.5232H5.87493V21.5628H17.6248ZM34.2706 27.4434C31.5665 27.4434 29.3746 25.2494 29.3746 22.5427C29.3746 19.8354 31.5665 17.6413 34.2706 17.6413C36.9753 17.6413 39.1672 19.8354 39.1672 22.5427C39.1672 25.2494 36.9753 27.4434 34.2706 27.4434Z" fill="#FC6A20"/>
</svg>
