<svg width="235" height="59" viewBox="0 0 235 59" fill="none" xmlns="http://www.w3.org/2000/svg">
<path d="M81.6997 33.9784C84.235 33.9784 86.4315 33.4344 88.2892 32.3465C90.1586 31.2468 91.6015 29.6919 92.6179 27.6816C93.6461 25.6714 94.1602 23.2769 94.1602 20.498V20.4626C94.1602 17.6956 93.6461 15.3069 92.6179 13.2967C91.6015 11.2747 90.1586 9.71971 88.2892 8.63183C86.4315 7.54394 84.235 7 81.6997 7C79.1643 7 76.962 7.54394 75.0926 8.63183C73.2349 9.71971 71.792 11.2747 70.7639 13.2967C69.7357 15.3069 69.2216 17.6956 69.2216 20.4626V20.498C69.2216 23.2769 69.7299 25.6714 70.7463 27.6816C71.7628 29.6919 73.2057 31.2468 75.0751 32.3465C76.9445 33.4344 79.1526 33.9784 81.6997 33.9784ZM81.6997 28.5862C80.5079 28.5862 79.4681 28.2551 78.5802 27.5929C77.6922 26.9189 77.0029 25.9789 76.5122 24.7727C76.0215 23.5548 75.7761 22.1299 75.7761 20.498V20.4626C75.7761 18.8189 76.0215 17.394 76.5122 16.1879C77.0146 14.9818 77.7097 14.0476 78.5977 13.3854C79.4856 12.7232 80.5196 12.3921 81.6997 12.3921C82.8797 12.3921 83.9137 12.7232 84.8016 13.3854C85.6896 14.0476 86.3789 14.9818 86.8696 16.1879C87.3603 17.394 87.6057 18.8189 87.6057 20.4626V20.498C87.6057 22.1299 87.3603 23.5548 86.8696 24.7727C86.3789 25.9789 85.6896 26.9189 84.8016 27.5929C83.9137 28.2551 82.8797 28.5862 81.6997 28.5862Z" fill="#0D1A34"/>
<path d="M101.092 25.8015H108.769C110.65 25.8015 112.285 25.4349 113.676 24.7018C115.066 23.9568 116.141 22.9103 116.9 21.5623C117.671 20.2024 118.057 18.612 118.057 16.791V16.7555C118.057 14.9226 117.671 13.3322 116.9 11.9842C116.141 10.6243 115.066 9.5719 113.676 8.82694C112.285 8.07015 110.65 7.69175 108.769 7.69175H101.092V12.6937H107.209C108.576 12.6937 109.639 13.0366 110.398 13.7224C111.17 14.4083 111.555 15.4193 111.555 16.7555V16.791C111.555 18.1153 111.17 19.1264 110.398 19.824C109.639 20.5217 108.576 20.8705 107.209 20.8705H101.092V25.8015ZM97.8678 33.2866H104.3V7.69175H97.8678V33.2866Z" fill="#0D1A34"/>
<path d="M127.618 33.2866H134.05V12.9242H141.34V7.69175H120.328V12.9242H127.618V33.2866Z" fill="#0D1A34"/>
<path d="M144.855 33.2866H151.287V7.69175H144.855V33.2866Z" fill="#0D1A34"/>
<path d="M156.187 33.2866H161.847V17.0038H165.019L159.183 8.40124L167.946 33.2866H171.626L180.389 8.40124L174.553 17.0038H177.725V33.2866H183.386V7.69175H176.043L169.961 25.0388H169.646L163.512 7.69175H156.187V33.2866Z" fill="#0D1A34"/>
<path d="M199.133 33.9784C201.353 33.9784 203.275 33.5822 204.899 32.79C206.535 31.9977 207.797 30.8862 208.685 29.4554C209.584 28.0246 210.034 26.3573 210.034 24.4535V7.69175H203.602V23.8326C203.602 25.3108 203.223 26.4755 202.463 27.3269C201.704 28.1664 200.6 28.5862 199.151 28.5862C197.725 28.5862 196.627 28.1664 195.856 27.3269C195.085 26.4755 194.699 25.3108 194.699 23.8326V7.69175H188.268V24.4535C188.268 26.3691 188.717 28.0423 189.617 29.4731C190.517 30.8921 191.779 31.9977 193.403 32.79C195.038 33.5822 196.949 33.9784 199.133 33.9784Z" fill="#0D1A34"/>
<path d="M224.362 33.9784C226.582 33.9784 228.486 33.6295 230.075 32.9319C231.664 32.2224 232.879 31.2291 233.721 29.952C234.574 28.6631 235 27.1495 235 25.4113V25.3935C235 23.3242 234.369 21.7101 233.107 20.5513C231.845 19.3806 229.865 18.5292 227.166 17.9971L224.555 17.4827C223.188 17.2226 222.195 16.8796 221.576 16.454C220.968 16.0164 220.664 15.4311 220.664 14.698V14.6802C220.664 14.1718 220.81 13.7283 221.102 13.3499C221.406 12.9597 221.833 12.6582 222.382 12.4453C222.931 12.2207 223.585 12.1083 224.345 12.1083C225.127 12.1083 225.817 12.2207 226.413 12.4453C227.008 12.67 227.482 12.9834 227.832 13.3854C228.194 13.7756 228.422 14.2427 228.516 14.7867L228.551 14.9818H234.509L234.492 14.7689C234.363 13.2553 233.896 11.9191 233.09 10.7603C232.284 9.58964 231.144 8.67321 229.672 8.01102C228.212 7.33701 226.424 7 224.31 7C222.37 7 220.647 7.34292 219.14 8.02876C217.632 8.70278 216.447 9.66059 215.582 10.9022C214.717 12.132 214.279 13.5805 214.268 15.2478V15.2656C214.268 17.264 214.875 18.8958 216.09 20.161C217.317 21.4263 219.262 22.325 221.926 22.8571L224.537 23.3715C226.021 23.6671 227.073 24.01 227.692 24.4002C228.311 24.7905 228.621 25.3462 228.621 26.0675V26.0853C228.621 26.6174 228.446 27.0963 228.095 27.522C227.756 27.9477 227.277 28.2788 226.658 28.5153C226.039 28.7518 225.309 28.87 224.467 28.87C223.614 28.87 222.861 28.7518 222.207 28.5153C221.552 28.2788 221.032 27.9595 220.647 27.5575C220.261 27.1436 220.039 26.6765 219.981 26.1562L219.963 25.9966H213.812L213.829 26.3159C213.923 27.9004 214.402 29.2662 215.266 30.4132C216.143 31.5484 217.352 32.4293 218.894 33.056C220.436 33.6709 222.259 33.9784 224.362 33.9784Z" fill="#0D1A34"/>
<path d="M68 53.0962H70.4918L73.2665 43.9075H73.9583V41.6163H71.9381L68 53.0962ZM70.1066 50.3118H76.5129L75.9313 48.5138H70.6883L70.1066 50.3118ZM76.1749 53.0962H78.6746L74.7286 41.6163H73.408V43.9075L76.1749 53.0962Z" fill="#0D1A34"/>
<path d="M79.8895 56H82.1848V51.696H82.3263C82.473 52.0143 82.6721 52.2874 82.9237 52.5155C83.1804 52.7435 83.4765 52.9212 83.8119 53.0485C84.1525 53.1705 84.522 53.2315 84.9202 53.2315C85.6486 53.2315 86.2748 53.0511 86.7989 52.6905C87.3229 52.3298 87.7264 51.8127 88.0094 51.1392C88.2924 50.4656 88.4339 49.6594 88.4339 48.7207V48.7047C88.4339 47.7713 88.2898 46.9704 88.0015 46.3022C87.7186 45.6286 87.3151 45.1088 86.791 44.7429C86.267 44.3769 85.6434 44.1939 84.9202 44.1939C84.5115 44.1939 84.1394 44.2549 83.804 44.3769C83.4686 44.4936 83.1752 44.6633 82.9237 44.8861C82.6774 45.1088 82.4782 45.3767 82.3263 45.6896H82.1848V44.3371H79.8895V56ZM84.1342 51.3062C83.7359 51.3062 83.3874 51.2028 83.0887 50.996C82.7953 50.7891 82.5673 50.4921 82.4049 50.1049C82.2424 49.7125 82.1612 49.251 82.1612 48.7207V48.7047C82.1612 48.1638 82.2398 47.7023 82.397 47.3205C82.5594 46.9333 82.7874 46.6363 83.0809 46.4295C83.3796 46.2226 83.7307 46.1192 84.1342 46.1192C84.5429 46.1192 84.8914 46.2226 85.1796 46.4295C85.4731 46.6363 85.6984 46.9333 85.8556 47.3205C86.0181 47.7076 86.0993 48.1691 86.0993 48.7047V48.7207C86.0993 49.2563 86.0181 49.7178 85.8556 50.1049C85.6984 50.4921 85.4731 50.7891 85.1796 50.996C84.8914 51.2028 84.5429 51.3062 84.1342 51.3062Z" fill="#0D1A34"/>
<path d="M89.8296 56H92.1248V51.696H92.2663C92.4131 52.0143 92.6122 52.2874 92.8637 52.5155C93.1205 52.7435 93.4166 52.9212 93.752 53.0485C94.0926 53.1705 94.462 53.2315 94.8603 53.2315C95.5887 53.2315 96.2149 53.0511 96.739 52.6905C97.263 52.3298 97.6665 51.8127 97.9495 51.1392C98.2325 50.4656 98.374 49.6594 98.374 48.7207V48.7047C98.374 47.7713 98.2298 46.9704 97.9416 46.3022C97.6586 45.6286 97.2551 45.1088 96.7311 44.7429C96.2071 44.3769 95.5835 44.1939 94.8603 44.1939C94.4516 44.1939 94.0795 44.2549 93.7441 44.3769C93.4087 44.4936 93.1153 44.6633 92.8637 44.8861C92.6174 45.1088 92.4183 45.3767 92.2663 45.6896H92.1248V44.3371H89.8296V56ZM94.0743 51.3062C93.676 51.3062 93.3275 51.2028 93.0288 50.996C92.7353 50.7891 92.5074 50.4921 92.3449 50.1049C92.1825 49.7125 92.1013 49.251 92.1013 48.7207V48.7047C92.1013 48.1638 92.1799 47.7023 92.3371 47.3205C92.4995 46.9333 92.7275 46.6363 93.0209 46.4295C93.3196 46.2226 93.6707 46.1192 94.0743 46.1192C94.483 46.1192 94.8315 46.2226 95.1197 46.4295C95.4132 46.6363 95.6385 46.9333 95.7957 47.3205C95.9582 47.7076 96.0394 48.1691 96.0394 48.7047V48.7207C96.0394 49.2563 95.9582 49.7178 95.7957 50.1049C95.6385 50.4921 95.4132 50.7891 95.1197 50.996C94.8315 51.2028 94.483 51.3062 94.0743 51.3062Z" fill="#0D1A34"/>
<path d="M99.8483 53.0962H102.144V40.9879H99.8483V53.0962Z" fill="#0D1A34"/>
<path d="M104.05 53.0962H106.345V44.3371H104.05V53.0962ZM105.206 42.9927C105.562 42.9927 105.866 42.868 106.118 42.6187C106.369 42.3642 106.495 42.0592 106.495 41.7039C106.495 41.3432 106.369 41.0382 106.118 40.789C105.866 40.5344 105.562 40.4071 105.206 40.4071C104.855 40.4071 104.551 40.5344 104.294 40.789C104.037 41.0382 103.909 41.3432 103.909 41.7039C103.909 42.0592 104.037 42.3642 104.294 42.6187C104.551 42.868 104.855 42.9927 105.206 42.9927Z" fill="#0D1A34"/>
<path d="M110.532 53.2315C110.909 53.2315 111.257 53.1811 111.577 53.0803C111.902 52.9742 112.185 52.8257 112.426 52.6348C112.672 52.4386 112.869 52.2052 113.016 51.9347H113.157V53.0962H115.421V47.1136C115.421 46.4931 115.279 45.9627 114.996 45.5225C114.719 45.077 114.313 44.7376 113.778 44.5042C113.244 44.2655 112.594 44.1462 111.829 44.1462C111.105 44.1462 110.469 44.2523 109.919 44.4644C109.374 44.6766 108.939 44.9736 108.614 45.3555C108.294 45.7373 108.103 46.1855 108.04 46.6999L108.032 46.7715H110.154L110.17 46.7397C110.259 46.4798 110.432 46.281 110.689 46.1431C110.951 45.9999 111.289 45.9283 111.703 45.9283C112.174 45.9283 112.533 46.0317 112.78 46.2385C113.031 46.4401 113.157 46.7318 113.157 47.1136V49.906C113.157 50.2137 113.076 50.4921 112.913 50.7414C112.751 50.9853 112.531 51.1789 112.253 51.3221C111.975 51.4653 111.658 51.5369 111.302 51.5369C110.904 51.5369 110.579 51.4415 110.327 51.2505C110.076 51.0596 109.95 50.7971 109.95 50.4629V50.447C109.95 50.1288 110.071 49.8769 110.312 49.6912C110.553 49.5056 110.919 49.3995 111.412 49.373L114.289 49.1821V47.766L111.066 47.9649C109.992 48.0285 109.164 48.2858 108.582 48.7366C108.001 49.1821 107.71 49.8 107.71 50.5902V50.6061C107.71 51.1365 107.83 51.6006 108.071 51.9984C108.312 52.3908 108.645 52.6958 109.07 52.9132C109.499 53.1254 109.987 53.2315 110.532 53.2315Z" fill="#0D1A34"/>
<path d="M117.186 53.0962H119.481V48.0285C119.481 47.6307 119.549 47.286 119.686 46.9943C119.827 46.7026 120.024 46.4772 120.275 46.3181C120.532 46.1537 120.836 46.0715 121.187 46.0715C121.732 46.0715 122.133 46.2306 122.39 46.5488C122.646 46.867 122.775 47.3364 122.775 47.9569V53.0962H125.07V47.4319C125.07 46.3817 124.816 45.5729 124.308 45.0054C123.805 44.4326 123.071 44.1462 122.107 44.1462C121.488 44.1462 120.97 44.2841 120.55 44.5599C120.131 44.8357 119.822 45.2123 119.623 45.6896H119.481V44.3371H117.186V53.0962Z" fill="#0D1A34"/>
<path d="M130.624 53.2792C131.379 53.2792 132.028 53.1519 132.573 52.8973C133.118 52.6374 133.551 52.2715 133.87 51.7995C134.19 51.3274 134.392 50.7758 134.476 50.1447V50.089L132.353 50.097L132.338 50.1208C132.238 50.5663 132.047 50.9005 131.764 51.1232C131.481 51.346 131.104 51.4574 130.632 51.4574C130.223 51.4574 129.877 51.3513 129.594 51.1392C129.311 50.927 129.094 50.6167 128.942 50.2084C128.795 49.7947 128.722 49.2935 128.722 48.7047V48.6888C128.722 48.1001 128.795 47.6042 128.942 47.2011C129.089 46.7981 129.303 46.4931 129.586 46.2863C129.875 46.0741 130.223 45.968 130.632 45.968C131.125 45.968 131.512 46.098 131.795 46.3579C132.083 46.6124 132.267 46.9519 132.346 47.3762L132.353 47.3921H134.484V47.3682C134.415 46.7159 134.222 46.1484 133.902 45.6657C133.582 45.1831 133.147 44.8092 132.597 44.544C132.047 44.2788 131.389 44.1462 130.624 44.1462C129.723 44.1462 128.955 44.3265 128.321 44.6872C127.692 45.0425 127.213 45.557 126.882 46.2306C126.552 46.9041 126.387 47.7236 126.387 48.6888V48.7047C126.387 49.6753 126.552 50.5027 126.882 51.1869C127.213 51.8658 127.692 52.3855 128.321 52.7462C128.955 53.1015 129.723 53.2792 130.624 53.2792Z" fill="#0D1A34"/>
<path d="M139.597 53.2792C140.231 53.2792 140.779 53.1996 141.24 53.0405C141.707 52.8761 142.094 52.664 142.404 52.4041C142.718 52.1442 142.964 51.8658 143.142 51.5688C143.321 51.2664 143.444 50.9774 143.512 50.7016L143.528 50.622H141.389L141.366 50.6698C141.314 50.7812 141.214 50.9058 141.067 51.0437C140.926 51.1763 140.737 51.293 140.501 51.3937C140.265 51.4945 139.98 51.5449 139.644 51.5449C139.23 51.5449 138.874 51.4521 138.575 51.2664C138.277 51.0808 138.046 50.813 137.884 50.4629C137.721 50.1129 137.64 49.6912 137.64 49.198V48.2592C137.64 47.7501 137.721 47.3205 137.884 46.9704C138.051 46.6151 138.277 46.3472 138.56 46.1669C138.848 45.9813 139.175 45.8885 139.542 45.8885C139.914 45.8885 140.239 45.9786 140.517 46.159C140.8 46.334 141.02 46.5965 141.177 46.9466C141.34 47.2966 141.421 47.7342 141.421 48.2592V49.19L142.498 47.8137H136.516V49.2696H143.598V48.5456C143.598 47.6599 143.433 46.8882 143.103 46.2306C142.773 45.5729 142.301 45.0611 141.688 44.6951C141.075 44.3292 140.347 44.1462 139.503 44.1462C138.665 44.1462 137.933 44.3345 137.31 44.7111C136.692 45.0876 136.212 45.618 135.871 46.3022C135.536 46.9863 135.368 47.7925 135.368 48.7207V48.7286C135.368 49.6674 135.539 50.4762 135.879 51.1551C136.22 51.8339 136.705 52.359 137.333 52.7303C137.968 53.0962 138.722 53.2792 139.597 53.2792Z" fill="#0D1A34"/>
<path d="M156.726 53.0962H159.297V53.0883L152.725 46.0953C152.416 45.7612 152.175 45.4854 152.002 45.2679C151.829 45.0505 151.709 44.8596 151.641 44.6951C151.572 44.5307 151.538 44.361 151.538 44.186V44.1701C151.538 43.9367 151.593 43.7325 151.703 43.5575C151.813 43.3772 151.963 43.2366 152.151 43.1359C152.345 43.0298 152.563 42.9767 152.804 42.9767C153.055 42.9767 153.273 43.0298 153.456 43.1359C153.645 43.2419 153.792 43.3851 153.897 43.5655C154.001 43.7458 154.054 43.9526 154.054 44.186V44.2019C154.054 44.5572 153.931 44.8781 153.684 45.1645C153.443 45.4509 153.011 45.7559 152.387 46.0794L153.448 47.1773C154.345 46.6893 154.987 46.1961 155.374 45.6975C155.767 45.199 155.964 44.6554 155.964 44.0667V44.0507C155.964 43.5363 155.828 43.0828 155.555 42.6903C155.283 42.2979 154.908 41.9903 154.431 41.7675C153.954 41.5394 153.407 41.4254 152.788 41.4254C152.17 41.4254 151.617 41.5394 151.13 41.7675C150.648 41.9903 150.265 42.3032 149.982 42.7063C149.704 43.1093 149.565 43.5734 149.565 44.0985V44.1144C149.565 44.3796 149.613 44.6421 149.707 44.902C149.801 45.1619 149.964 45.4509 150.194 45.7691C150.425 46.0874 150.739 46.4692 151.137 46.9147L156.726 53.0962ZM152.324 53.311C153.226 53.311 154.03 53.1625 154.738 52.8655C155.445 52.5685 156.045 52.1628 156.538 51.6483C157.083 51.0861 157.489 50.4338 157.756 49.6912C158.023 48.9434 158.157 48.1213 158.157 47.225V46.7079H156.231V47.0739C156.231 47.6997 156.155 48.2805 156.003 48.8161C155.851 49.3465 155.623 49.8212 155.319 50.2402C155.115 50.516 154.876 50.7573 154.604 50.9641C154.337 51.171 154.033 51.3327 153.692 51.4494C153.352 51.5661 152.974 51.6244 152.56 51.6244C152.151 51.6244 151.793 51.5528 151.483 51.4096C151.174 51.2664 150.933 51.0649 150.76 50.805C150.587 50.5451 150.501 50.2455 150.501 49.906V49.8901C150.501 49.5189 150.603 49.1847 150.807 48.8877C151.017 48.5907 151.326 48.3361 151.735 48.124L152.269 47.8376L151.185 46.6283L150.485 47.0102C149.751 47.4027 149.212 47.8482 148.866 48.3467C148.525 48.84 148.355 49.4181 148.355 50.0811V50.097C148.355 50.744 148.517 51.3089 148.842 51.7915C149.167 52.2741 149.628 52.6481 150.226 52.9132C150.823 53.1784 151.523 53.311 152.324 53.311Z" fill="#0D1A34"/>
<path d="M164.069 53.0962H166.443V48.2592H171.552V53.0962H173.926V41.6163H171.552V46.2783H166.443V41.6163H164.069V53.0962Z" fill="#0D1A34"/>
<path d="M179.166 53.0962H182.09L185.871 41.6163H183.198L180.698 50.4232H180.557L178.049 41.6163H175.385L179.166 53.0962Z" fill="#0D1A34"/>
<path d="M185.498 53.0962H187.989L190.764 43.9075H191.456V41.6163H189.436L185.498 53.0962ZM187.604 50.3118H194.011L193.429 48.5138H188.186L187.604 50.3118ZM193.673 53.0962H196.172L192.226 41.6163H190.906V43.9075L193.673 53.0962Z" fill="#0D1A34"/>
<path d="M201.915 53.3906C202.832 53.3906 203.644 53.2209 204.352 52.8814C205.059 52.5367 205.63 52.062 206.065 51.4574C206.5 50.8528 206.759 50.15 206.843 49.3491V49.2537H204.532L204.517 49.3253C204.438 49.7337 204.278 50.0917 204.037 50.3993C203.801 50.7016 203.503 50.9376 203.141 51.1073C202.785 51.2717 202.379 51.354 201.923 51.354C201.325 51.354 200.809 51.1922 200.374 50.8687C199.939 50.5451 199.604 50.0837 199.368 49.4844C199.137 48.8851 199.022 48.177 199.022 47.3603V47.3443C199.022 46.5223 199.137 45.8142 199.368 45.2202C199.604 44.6209 199.939 44.1621 200.374 43.8439C200.809 43.5204 201.323 43.3586 201.915 43.3586C202.365 43.3586 202.772 43.4488 203.133 43.6291C203.5 43.8094 203.804 44.064 204.045 44.3928C204.286 44.7164 204.446 45.0929 204.524 45.5225L204.532 45.5782H206.835V45.4748C206.762 44.6686 206.505 43.9526 206.065 43.3268C205.625 42.701 205.046 42.2104 204.328 41.855C203.615 41.4997 202.811 41.322 201.915 41.322C200.814 41.322 199.866 41.566 199.069 42.0539C198.278 42.5365 197.667 43.2287 197.238 44.1303C196.808 45.0319 196.593 46.1033 196.593 47.3443V47.3603C196.593 48.6013 196.808 49.6727 197.238 50.5743C197.667 51.4759 198.281 52.1707 199.077 52.6587C199.874 53.1466 200.82 53.3906 201.915 53.3906Z" fill="#0D1A34"/>
<path d="M212.213 53.0962H214.587V41.6163H212.213V53.0962Z" fill="#0D1A34"/>
<path d="M216.627 53.0962H218.922V48.0285C218.922 47.6307 218.991 47.286 219.127 46.9943C219.268 46.7026 219.465 46.4772 219.716 46.3181C219.973 46.1537 220.277 46.0715 220.628 46.0715C221.173 46.0715 221.574 46.2306 221.831 46.5488C222.088 46.867 222.216 47.3364 222.216 47.9569V53.0962H224.511V47.4319C224.511 46.3817 224.257 45.5729 223.749 45.0054C223.246 44.4326 222.512 44.1462 221.548 44.1462C220.929 44.1462 220.411 44.2841 219.991 44.5599C219.572 44.8357 219.263 45.2123 219.064 45.6896H218.922V44.3371H216.627V53.0962Z" fill="#0D1A34"/>
<path d="M230.065 53.2792C230.82 53.2792 231.47 53.1519 232.015 52.8973C232.56 52.6374 232.992 52.2715 233.312 51.7995C233.631 51.3274 233.833 50.7758 233.917 50.1447V50.089L231.794 50.097L231.779 50.1208C231.679 50.5663 231.488 50.9005 231.205 51.1232C230.922 51.346 230.545 51.4574 230.073 51.4574C229.664 51.4574 229.318 51.3513 229.035 51.1392C228.752 50.927 228.535 50.6167 228.383 50.2084C228.236 49.7947 228.163 49.2935 228.163 48.7047V48.6888C228.163 48.1001 228.236 47.6042 228.383 47.2011C228.53 46.7981 228.745 46.4931 229.028 46.2863C229.316 46.0741 229.664 45.968 230.073 45.968C230.566 45.968 230.953 46.098 231.236 46.3579C231.525 46.6124 231.708 46.9519 231.787 47.3762L231.794 47.3921H233.925V47.3682C233.857 46.7159 233.663 46.1484 233.343 45.6657C233.023 45.1831 232.588 44.8092 232.038 44.544C231.488 44.2788 230.83 44.1462 230.065 44.1462C229.164 44.1462 228.396 44.3265 227.762 44.6872C227.133 45.0425 226.654 45.557 226.324 46.2306C225.993 46.9041 225.828 47.7236 225.828 48.6888V48.7047C225.828 49.6753 225.993 50.5027 226.324 51.1869C226.654 51.8658 227.133 52.3855 227.762 52.7462C228.396 53.1015 229.164 53.2792 230.065 53.2792Z" fill="#0D1A34"/>
<path fill-rule="evenodd" clip-rule="evenodd" d="M57.5529 24.889C57.5529 25.4103 57.4169 25.773 57.0316 26.1584C56.7822 26.4077 56.3742 26.6797 55.8755 26.6797C54.8328 26.6797 54.7195 26.1584 54.1981 25.7957C54.1981 27.4504 54.1981 28.9691 54.1981 30.6239C54.1981 31.5079 54.1981 34.432 54.1981 35.3387C54.0621 36.1094 54.0621 36.8575 53.9488 37.4921C53.6995 38.6482 52.9061 39.6456 51.75 40.2803C50.458 41.0509 49.6873 40.6656 49.1659 40.8016C48.5312 40.9376 48.0099 41.187 47.6019 41.8216C47.4659 41.9577 47.3525 42.343 47.3525 42.5923C47.3525 43.7711 50.594 46.6045 48.9166 48.8259C47.7379 50.458 44.7004 53.6314 43.091 54.4248C42.4563 54.6742 41.935 54.8102 41.1416 54.8102C40.2349 54.8102 39.3282 54.4248 38.8069 53.9261C38.4215 53.6768 38.1722 53.2914 37.9002 53.1554C37.5148 52.9061 36.6081 52.6341 36.0868 52.7701C35.7014 52.9061 35.5654 53.0194 35.3161 53.2914C34.5454 54.0621 34.9307 54.9462 34.5454 55.9662C34.296 56.7369 33.7747 57.4849 33.1173 58.0063C31.2359 59.5477 25.4103 59.049 23.5516 58.1196C22.3956 57.3489 21.6022 56.0795 21.6022 54.6742V54.1528C21.6022 53.7448 21.3755 53.1781 21.0808 52.8834C20.3328 52.1581 19.3808 52.0447 18.4967 52.6341C17.9754 53.0194 17.862 53.4048 16.6833 53.9035C16.162 54.1528 15.5273 54.1528 14.8699 54.1528C11.7645 54.1528 7.75231 49.0526 7.75231 46.5138C7.75231 45.4938 8.13765 44.3604 8.90835 43.5897C9.04436 43.4764 9.15769 43.3404 9.2937 43.2044C9.67905 42.819 9.81505 42.4337 9.81505 41.799C9.81505 40.9149 8.90835 40.0309 8.00165 40.0309C7.86564 40.0309 7.86564 40.0309 7.6163 40.0309C6.34692 40.0309 4.17083 38.8295 3.69481 37.3561C3.58147 36.9935 3.3548 34.6587 3.3548 34.296V25.909C3.10546 26.045 2.96945 26.2944 2.72011 26.4304C2.08542 26.9517 1.15605 26.8157 0.521354 26.2944C0.136005 25.909 0 25.5237 0 25.025C0 24.5036 0.249343 24.141 0.521354 23.8689C9.31637 16.2073 18.5421 8.29633 27.1557 0.8387C27.7224 0.317346 27.8811 0 28.7425 0C29.6492 0 29.8532 0.453351 30.3519 0.8387C39.6909 9.15769 48.5993 16.3206 57.0089 23.9823C57.2809 24.1183 57.5529 24.5036 57.5529 24.889ZM28.2891 29.6945C28.2891 29.4452 27.9038 29.0598 27.6544 28.8105C27.5184 28.6745 27.4051 28.5611 27.2691 28.4251C27.0197 28.1758 26.7477 27.9038 26.4984 27.6544C26.3624 27.5184 26.249 27.4051 26.113 27.2691C25.977 27.1331 25.8637 27.0197 25.7277 26.8837C25.5917 26.7477 25.4783 26.6344 25.3423 26.4984L24.5716 25.7277C24.3223 25.4783 24.0503 25.093 24.4356 24.5716C24.685 24.1863 24.957 24.1863 25.4783 24.0729C29.2185 23.4383 32.596 25.3423 34.1373 28.4025C34.6587 29.5585 34.908 30.5559 34.908 31.8479C34.908 33.3666 34.2734 34.3867 34.2734 34.772C34.5227 34.908 35.0441 35.5427 35.3161 35.7921L36.9935 37.5828C37.2428 37.8322 37.5148 38.1042 37.6282 38.3535L39.0562 39.7589C39.1922 39.8949 39.3056 40.0082 39.4416 40.1442C39.5776 40.2803 39.6909 40.3936 39.8269 40.5296C40.4843 39.5096 40.7336 38.8749 41.119 37.7188C41.6403 36.2001 41.7536 35.18 41.7536 33.6387C41.7536 31.8706 41.2323 30.0799 40.5976 28.5611C40.0762 27.4051 39.4416 26.657 38.7842 25.773C38.6482 25.637 38.5349 25.5237 38.3988 25.3877C38.2628 25.1383 37.4921 24.5036 37.2428 24.2316C36.4721 23.5969 35.2934 22.8262 34.3867 22.4409C32.9586 21.8062 31.1452 21.2848 29.3318 21.2848H28.4251C25.569 21.2848 22.4636 22.5542 20.4008 24.345L19.6301 25.1157C18.9954 25.7503 18.7234 26.1357 18.2021 26.7704C16.774 28.6745 15.8673 31.3492 15.8673 33.7747V34.16C15.8673 35.9507 16.3886 37.8548 17.0233 39.2375C17.4087 39.8722 17.794 40.6429 18.1794 41.2776C18.5647 41.799 18.8141 42.0483 19.0861 42.4337C19.3354 42.819 20.1288 43.5897 20.5141 43.8391C20.7635 44.0884 21.0355 44.3604 21.4208 44.4738C22.0782 44.8591 22.7129 45.2444 23.4836 45.6298C24.9117 46.2645 26.8611 46.7858 28.6518 46.7858C30.6012 46.7858 32.528 46.4005 34.2054 45.6298C34.5907 45.5165 35.3614 45.1084 35.6334 44.8591L34.5907 43.8391C34.4547 43.7031 34.3414 43.5897 34.2054 43.4537L32.7773 42.0483C32.528 41.799 32.2559 41.527 32.1199 41.2776C31.9839 41.1416 31.8706 41.0283 31.7346 40.8923C31.5986 40.7563 31.4852 40.6429 31.3492 40.5069C31.0999 40.2576 30.1932 39.3509 29.9212 39.1015C28.6291 39.4869 28.2438 39.6229 26.6797 39.6229C24.481 39.6229 22.1462 38.4668 20.7182 36.6988C19.4261 35.044 18.5194 32.6186 19.1541 29.9665C19.2901 29.7172 19.2901 29.3318 19.5394 29.1958C19.7888 28.9465 20.4461 28.8105 20.6955 29.1958C21.3302 29.7172 21.9875 30.4652 22.6449 31.0999L23.6876 32.2559C23.8236 32.3919 24.073 32.6413 24.209 32.7773C24.4583 33.0266 24.4583 33.1626 24.9797 33.0266C25.6143 33.0266 26.2717 32.8906 26.9291 32.7773C27.1784 32.7773 27.6998 32.6413 27.6998 32.528C28.0398 32.2559 28.2891 30.0799 28.2891 29.6945ZM41.8897 3.51347H48.3726C49.4153 3.51347 50.186 4.28417 50.186 5.28154V13.9179L40.0762 5.41755V5.28154C40.0762 4.28417 40.8469 3.51347 41.8897 3.51347ZM32.6866 13.5552C32.5506 15.5953 33.8427 17.114 34.8854 17.7487C36.8348 18.9047 39.4189 18.6327 40.9603 17.114C41.2096 16.8647 41.4816 16.6153 42.003 16.6153C42.6377 16.6153 47.2392 20.4008 46.2645 21.8289C46.1285 22.0782 46.0152 22.0782 45.8791 22.2142C44.7231 23.2342 44.2017 24.889 44.3151 26.4077C44.5644 28.6971 46.3778 30.2159 48.3272 30.6012C48.8486 30.7372 49.3699 30.6012 49.7553 30.8505C51.2287 31.3946 50.798 36.5174 50.1406 37.4695C49.438 38.1495 45.9698 37.3788 44.5871 40.1442C43.6804 41.799 43.5444 43.5897 44.5871 45.2218C44.8364 45.6071 45.1084 45.8565 45.3578 46.1058C45.4938 46.2418 45.6071 46.3552 45.7431 46.4912C45.8791 46.7405 45.8791 46.8765 45.8791 47.1259C45.8791 48.3046 42.751 50.7073 41.867 51.4554C41.4816 51.7047 41.0963 51.8407 40.5749 51.5687C40.0536 51.3194 39.9402 50.798 38.6482 50.1633C37.8775 49.778 36.9708 49.5286 35.9281 49.642C33.9787 49.778 32.6866 51.0473 32.0519 52.3167C31.3946 53.7221 31.6666 54.4701 31.5306 54.9915C31.2132 56.2382 24.413 56.6916 24.413 54.2208C24.413 52.1807 23.2569 50.662 22.2142 50.0273C20.6501 49.0073 18.7234 49.0073 17.046 49.914C15.89 50.5487 15.89 51.1833 14.9833 51.1833C14.3486 51.1833 13.9406 50.662 13.4192 50.2993C13.0338 49.914 12.3765 49.2793 11.9911 48.8939L10.6991 47.3752C10.4497 46.9899 10.4497 46.4912 10.5631 46.1058C10.6991 45.9925 10.9484 45.5845 11.0844 45.4711C11.3338 45.2218 11.7191 44.5871 11.9911 44.3151C12.7618 42.6603 12.6258 40.7563 11.4698 39.2375C10.8351 38.3535 9.65638 37.5828 8.36433 37.3335C7.84298 37.1975 7.32162 37.3335 6.93627 37.0841C6.12024 36.4494 6.14291 31.2586 6.93627 30.4652C7.18562 30.0799 7.57097 30.0799 8.22832 30.0799C13.1472 29.9665 14.8246 24.753 11.8551 21.8062C11.6058 21.5568 11.3338 21.2848 11.2204 20.7862C11.2204 19.7888 15.0739 15.6179 16.5247 16.3433C17.046 16.5927 17.1593 17.114 18.4741 17.7487C19.2448 18.134 20.2875 18.3834 21.1942 18.2701C23.5289 18.134 25.2063 16.366 25.5917 14.4619C25.5917 14.2126 25.7277 13.9405 25.7277 13.6912C25.7277 13.4419 25.7277 13.1699 25.7277 12.9205C25.977 11.9005 27.1557 12.0365 28.0624 11.9005C29.1052 11.9005 30.2612 11.9005 31.3039 12.0365C31.8253 12.0365 32.2106 12.0365 32.596 12.4218C32.6866 12.6712 32.6866 12.9205 32.6866 13.5552Z" fill="#FC6A20"/>
</svg>
