<svg width="43" height="43" viewBox="0 0 43 43" fill="none" xmlns="http://www.w3.org/2000/svg">
<path d="M22.8909 2.73822C22.4303 2.70422 21.9687 2.68719 21.5069 2.68716V7.56328e-07C22.035 0.000258261 22.563 0.0199775 23.0897 0.0591184L22.8909 2.73822ZM28.2762 3.94744C27.4148 3.61505 26.5301 3.34651 25.6292 3.14398L26.2177 0.521311C27.247 0.752407 28.2601 1.05874 29.2437 1.44032L28.2762 3.94744ZM31.9578 5.85533C31.5736 5.59911 31.1801 5.3571 30.7781 5.1298L32.103 2.79196C33.0218 3.31256 33.9011 3.89995 34.7338 4.54937L33.0811 6.66954C32.7168 6.38532 32.3421 6.11463 31.9578 5.85802V5.85533ZM36.8864 10.6654C36.3548 9.9102 35.7683 9.19526 35.1315 8.52637L37.0772 6.67223C37.8027 7.43807 38.4746 8.25766 39.0846 9.11755L36.8864 10.6654ZM38.8857 14.2984C38.7093 13.8724 38.5175 13.4529 38.3106 13.0408L40.7104 11.8316C41.185 12.775 41.5892 13.7522 41.9197 14.7552L39.3668 15.5963C39.2223 15.1579 39.0619 14.725 38.8857 14.2984ZM40.31 21.0351C40.2883 20.1116 40.1984 19.191 40.0413 18.2808L42.6883 17.824C42.8683 18.8612 42.9731 19.9146 43 20.9679L40.3127 21.0351H40.31ZM39.958 25.168C40.0466 24.7112 40.1192 24.257 40.1756 23.7975L42.8441 24.128C42.7151 25.1765 42.5085 26.2138 42.2261 27.2317L39.6355 26.5142C39.7591 26.0709 39.8666 25.6221 39.958 25.168ZM37.3996 31.5607C37.8941 30.7815 38.3294 29.9646 38.7057 29.1208L41.1619 30.2091C40.7319 31.1765 40.2348 32.1062 39.6704 32.9984L37.3996 31.5607ZM34.8091 34.7988C35.1369 34.4709 35.4513 34.1324 35.7496 33.783L37.7866 35.5377C37.4417 35.9377 37.0822 36.3249 36.709 36.6986L34.8091 34.7988Z" fill="#FC6A20"/>
<path d="M21.5069 2.68716C18.4135 2.68739 15.3678 3.45044 12.6398 4.90875C9.9117 6.36705 7.58539 8.47559 5.86689 11.0476C4.14838 13.6196 3.09072 16.5757 2.7876 19.6541C2.48447 22.7324 2.94523 25.8381 4.12906 28.6958C5.31289 31.5536 7.18325 34.0753 9.57449 36.0377C11.9657 38 14.804 39.3424 17.838 39.946C20.872 40.5495 24.0079 40.3955 26.9682 39.4977C29.9284 38.5999 32.6216 36.9859 34.8091 34.7988L36.709 36.6986C34.2091 39.1998 31.1308 41.0457 27.7469 42.0729C24.363 43.1001 20.778 43.2769 17.3095 42.5875C13.8409 41.8981 10.596 40.3639 7.86219 38.1207C5.12837 35.8776 2.99006 32.9948 1.63673 29.7278C0.283397 26.4608 -0.243174 22.9104 0.103671 19.3913C0.450516 15.8722 1.66007 12.4929 3.62516 9.55292C5.59025 6.61294 8.2502 4.20302 11.3693 2.53669C14.4885 0.870359 17.9705 -0.000937101 21.5069 7.56328e-07V2.68716Z" fill="#FC6A20"/>
<path d="M20.1632 8.06149C20.5196 8.06149 20.8614 8.20305 21.1133 8.45502C21.3653 8.70699 21.5069 9.04873 21.5069 9.40508V23.4052L30.2353 28.3926C30.5357 28.5738 30.7533 28.8653 30.8416 29.2049C30.9299 29.5444 30.8819 29.905 30.7078 30.2096C30.5338 30.5142 30.2474 30.7387 29.9101 30.835C29.5727 30.9313 29.211 30.8918 28.9024 30.725L19.4968 25.3507C19.2911 25.2332 19.1202 25.0635 19.0012 24.8587C18.8823 24.6539 18.8196 24.4213 18.8196 24.1845V9.40508C18.8196 9.04873 18.9611 8.70699 19.2131 8.45502C19.4651 8.20305 19.8069 8.06149 20.1632 8.06149Z" fill="#FC6A20"/>
</svg>
