<svg width="42" height="47" viewBox="0 0 42 47" fill="none" xmlns="http://www.w3.org/2000/svg">
<path d="M12.2392 23.5653L11.3388 24.4682L17.9385 30.9818L33.7208 15.5009L32.8208 14.584L17.9376 29.1825L12.2392 23.5653Z" fill="#FC6A20"/>
<path d="M21.3881 1.28943L21.0002 1L20.6123 1.28943C11.9971 7.75441 1.60965 10.105 1.50577 10.1257L1 10.2358V10.7526C1 21.4221 1 43.6369 20.9239 46H21.0761C41 43.636 41 21.4359 41 10.7526V10.2358L40.4942 10.1257C40.3909 10.105 30.0029 7.75441 21.3878 1.28943H21.3881ZM21.0002 44.7118C2.56518 42.4718 2.30178 22.4418 2.30178 11.2564C4.48338 10.6982 13.3825 8.20968 21.0002 2.59949C28.6665 8.21017 37.5307 10.6982 39.6985 11.2564C39.6985 22.4427 39.4353 42.4717 21.0002 44.7192V44.7118Z" fill="#FC6A20"/>
<path d="M12.2392 23.5653L11.3388 24.4682L17.9385 30.9818L33.7208 15.5009L32.8208 14.584L17.9376 29.1825L12.2392 23.5653Z" stroke="#FC6A20"/>
<path d="M21.3881 1.28943L21.0002 1L20.6123 1.28943C11.9971 7.75441 1.60965 10.105 1.50577 10.1257L1 10.2358V10.7526C1 21.4221 1 43.6369 20.9239 46H21.0761C41 43.636 41 21.4359 41 10.7526V10.2358L40.4942 10.1257C40.3909 10.105 30.0029 7.75441 21.3878 1.28943H21.3881ZM21.0002 44.7118C2.56518 42.4718 2.30178 22.4418 2.30178 11.2564C4.48338 10.6982 13.3825 8.20968 21.0002 2.59949C28.6665 8.21017 37.5307 10.6982 39.6985 11.2564C39.6985 22.4427 39.4353 42.4717 21.0002 44.7192V44.7118Z" stroke="#FC6A20"/>
</svg>
